<?xml version="1.0" encoding="iso-8859-1"?>
<!-- Generator: Adobe Illustrator 25.2.0, SVG Export Plug-In . SVG Version: 6.00 Build 0)  -->
<svg version="1.1" xmlns="http://www.w3.org/2000/svg" xmlns:xlink="http://www.w3.org/1999/xlink" x="0px" y="0px"
	 viewBox="0 0 64 64" style="enable-background:new 0 0 64 64;" xml:space="preserve">
<g id="&#x421;&#x43B;&#x43E;&#x439;_2" style="display:none;">
</g>
<g id="&#x421;&#x43B;&#x43E;&#x439;_1">
	<linearGradient id="SVGID_1_" gradientUnits="userSpaceOnUse" x1="31.287" y1="3.3832" x2="31.287" y2="62.9048">
		<stop  offset="0" style="stop-color:#1A6DFF"/>
		<stop  offset="1" style="stop-color:#C822FF"/>
	</linearGradient>
	<path style="fill:url(#SVGID_1_);" d="M23.749,48.868c-9.61,2.669,5.846,8.183,18.081,2.971c-2.004-0.775-3.439-1.669-3.439-1.669
		c-5.458,1.027-7.99,1.107-12.942,0.546C21.36,50.249,23.749,48.868,23.749,48.868z"/>
	<linearGradient id="SVGID_2_" gradientUnits="userSpaceOnUse" x1="30.9136" y1="3.9106" x2="30.9136" y2="62.5815">
		<stop  offset="0" style="stop-color:#1A6DFF"/>
		<stop  offset="1" style="stop-color:#C822FF"/>
	</linearGradient>
	<path style="fill:url(#SVGID_2_);" d="M40.365,43.613c-7.23,1.364-11.408,1.32-16.699,0.785c-4.091-0.415-1.412-2.357-1.412-2.357
		c-10.587,3.442,5.89,7.346,20.684,3.108C41.365,44.606,40.365,43.613,40.365,43.613z"/>
	<linearGradient id="SVGID_3_" gradientUnits="userSpaceOnUse" x1="39.0178" y1="3.2128" x2="39.0178" y2="62.9574">
		<stop  offset="0" style="stop-color:#1A6DFF"/>
		<stop  offset="1" style="stop-color:#C822FF"/>
	</linearGradient>
	<path style="fill:url(#SVGID_3_);" d="M46.036,13.383c0,0-21.54,5.331-11.252,17.079c3.035,3.463-0.797,6.579-0.797,6.579
		s7.706-3.942,4.167-8.879C34.848,23.557,32.313,21.27,46.036,13.383z"/>
	<linearGradient id="SVGID_4_" gradientUnits="userSpaceOnUse" x1="30.5742" y1="3.3728" x2="30.5742" y2="62.9269">
		<stop  offset="0" style="stop-color:#1A6DFF"/>
		<stop  offset="1" style="stop-color:#C822FF"/>
	</linearGradient>
	<path style="fill:url(#SVGID_4_);" d="M51.041,53.916c0,0,1.768,1.448-1.947,2.569c-7.063,2.128-29.395,2.77-35.599,0.085
		c-2.23-0.965,1.952-2.304,3.268-2.585c1.372-0.296,2.156-0.241,2.156-0.241c-2.48-1.737-16.031,3.412-6.883,4.886
		C36.983,62.653,57.512,56.818,51.041,53.916z"/>
	<linearGradient id="SVGID_5_" gradientUnits="userSpaceOnUse" x1="29.6221" y1="3.2128" x2="29.6221" y2="62.9574">
		<stop  offset="0" style="stop-color:#1A6DFF"/>
		<stop  offset="1" style="stop-color:#C822FF"/>
	</linearGradient>
	<path style="fill:url(#SVGID_5_);" d="M42.465,38.765c1.199-0.817,2.857-1.525,2.857-1.525s-4.721,0.841-9.422,1.237
		c-5.753,0.481-11.928,0.574-15.026,0.161c-7.337-0.977,4.023-3.669,4.023-3.669s-4.411-0.297-9.837,2.32
		C8.645,40.384,30.93,41.792,42.465,38.765z"/>
	<linearGradient id="SVGID_6_" gradientUnits="userSpaceOnUse" x1="50.0199" y1="0.9988" x2="50.0199" y2="64.2876">
		<stop  offset="0" style="stop-color:#1A6DFF"/>
		<stop  offset="1" style="stop-color:#C822FF"/>
	</linearGradient>
	<path style="fill:url(#SVGID_6_);" d="M45.276,46.675C45.222,46.829,45.04,47,45.04,47c15.704-4.351,9.93-15.336,2.423-12.555
		c-0.659,0.247-1.005,0.817-1.005,0.817s0.415-0.177,1.345-0.381C51.598,34.048,57.034,40.236,45.276,46.675z"/>
	<linearGradient id="SVGID_7_" gradientUnits="userSpaceOnUse" x1="32" y1="3.2128" x2="32" y2="62.9574">
		<stop  offset="0" style="stop-color:#1A6DFF"/>
		<stop  offset="1" style="stop-color:#C822FF"/>
	</linearGradient>
	<path style="fill:url(#SVGID_7_);" d="M32.225,34.854c-2.293-5.208-10.071-9.766,0.004-17.76
		c12.564-9.966,6.116-16.447,6.116-16.447c2.602,10.295-9.172,13.403-13.422,19.815C22.029,24.83,26.344,29.523,32.225,34.854z"/>
	<linearGradient id="SVGID_8_" gradientUnits="userSpaceOnUse" x1="36.1065" y1="3.2125" x2="36.1065" y2="62.9575">
		<stop  offset="0" style="stop-color:#1A6DFF"/>
		<stop  offset="1" style="stop-color:#C822FF"/>
	</linearGradient>
	<path style="fill:url(#SVGID_8_);" d="M45.697,60.706c-9.607,1.804-21.456,1.593-28.484,0.437c0,0,1.439,1.188,8.837,1.661
		c11.256,0.719,28.541-0.399,28.95-5.712C55,57.092,54.213,59.106,45.697,60.706z"/>
</g>
</svg>